# xmcd
#
# Track frame offsets:
#	150
#	11727
#	22981
#	34612
#	45056
#	58100
#	68985
#	89945
#	100670
#	108777
#	118417
#	130961
#	146919
#	162169
#	173446
#	184816
#	193946
#	204993
#	221005
#	233867
#	242261
#	255301
#	269207
#	278966
#	293414
#
# Disc length: 4155 seconds
#
# Revision: 0
# Processed by: cddbd v1.5.1PL0 Copyright (c) Steve Scherf et al.
# Submitted via: EasyCDDAExtractor 8.0.2.1
#
DISCID=6b103919
DTITLE=Marty Robbins - A Lifetime Of Country Hits
DYEAR=1900
DGENRE=Country
TTITLE0=18 Yellow Roses
TTITLE1=A White Sports Coat
TTITLE2=Among My Souvenirs
TTITLE3=She Was Only Seventeen (He Was One Year More)
TTITLE4=Devil Woman
TTITLE5=Down In The Green Valley
TTITLE6=El Paso
TTITLE7=I Did What I Did For Maria
TTITLE8=In The Valley
TTITLE9=Just Married
TTITLE10=Maria Elena
TTITLE11=My Woman, My Woman, My Wife
TTITLE12=Parde
TTITLE13=Red River Valley
TTITLE14=Ribbon Of Darkness
TTITLE15=Saddle Tramp
TTITLE16=Singing The Blues
TTITLE17=Ballad Of The Alamo
TTITLE18=Cowboy In The Continental Suit
TTITLE19=The Fastest Gun Around
TTITLE20=The Hanging Tree
TTITLE21=The Master's Call
TTITLE22=Running Gun
TTITLE23=Utah Carol
TTITLE24=You Gave Me A Mountain
EXTD=
EXTT0=
EXTT1=
EXTT2=
EXTT3=
EXTT4=
EXTT5=
EXTT6=
EXTT7=
EXTT8=
EXTT9=
EXTT10=
EXTT11=
EXTT12=
EXTT13=
EXTT14=
EXTT15=
EXTT16=
EXTT17=
EXTT18=
EXTT19=
EXTT20=
EXTT21=
EXTT22=
EXTT23=
EXTT24=
PLAYORDER=
